<svg xmlns="http://www.w3.org/2000/svg" width="30" height="30" viewBox="0 0 30 30">
  <g id="グループ_12544" data-name="グループ 12544" transform="translate(-247 -649)">
    <rect id="長方形_5517" data-name="長方形 5517" width="30" height="30" transform="translate(247 649)" fill="#fff" opacity="0.004"/>
    <g id="グループ_12669" data-name="グループ 12669" transform="translate(-945.828 633.468)">
      <g id="楕円形_374" data-name="楕円形 374" transform="translate(1201.828 20.532)" fill="none" stroke="#fff" stroke-width="2">
        <circle cx="6" cy="6" r="6" stroke="none"/>
        <circle cx="6" cy="6" r="5" fill="none"/>
      </g>
      <g id="交差_1" data-name="交差 1" transform="translate(1199 32.234)" fill="none">
        <path d="M0,8.831a8.828,8.828,0,1,1,17.656,0Z" stroke="none"/>
        <path d="M 15.35784149169922 6.831057548522949 C 14.50126647949219 4.037258625030518 11.89886856079102 1.99999737739563 8.830075263977051 1.99999737739563 C 5.759536743164062 1.99999737739563 3.155652761459351 4.037258625030518 2.298588752746582 6.831057548522949 L 15.35784149169922 6.831057548522949 M 17.6562557220459 8.831057548522949 L 4.999999873689376e-06 8.831057548522949 C 4.999999873689376e-06 3.953127384185791 3.953125 -2.6562499897409e-06 8.830075263977051 -2.6562499897409e-06 C 13.703125 -2.6562499897409e-06 17.6562557220459 3.953127384185791 17.6562557220459 8.831057548522949 Z" stroke="none" fill="#fff"/>
      </g>
    </g>
  </g>
</svg>
