<svg xmlns="http://www.w3.org/2000/svg" width="30" height="30" viewBox="0 0 30 30">
  <g id="グループ_12544" data-name="グループ 12544" transform="translate(-247 -649)">
    <rect id="長方形_5517" data-name="長方形 5517" width="30" height="30" transform="translate(247 649)" fill="#fff" opacity="0.004"/>
    <g id="グループ_12669" data-name="グループ 12669" transform="translate(-948 631)">
      <g id="楕円形_374" data-name="楕円形 374" transform="translate(1203 21)" fill="none" stroke="#1a1311" stroke-width="2">
        <circle cx="7" cy="7" r="7" stroke="none"/>
        <circle cx="7" cy="7" r="6" fill="none"/>
      </g>
      <g id="交差_1" data-name="交差 1" transform="translate(-22287 -10580)" fill="none">
        <path d="M23486,10626a11,11,0,1,1,22,0Z" stroke="none"/>
        <path d="M 23505.775390625 10624.0009765625 C 23504.865234375 10619.99609375 23501.27734375 10616.998046875 23497.001953125 10616.998046875 C 23492.724609375 10616.998046875 23489.134765625 10619.99609375 23488.224609375 10624.0009765625 L 23505.775390625 10624.0009765625 M 23508 10626.0009765625 L 23486 10626.0009765625 C 23486 10619.923828125 23490.92578125 10614.998046875 23497.001953125 10614.998046875 C 23503.07421875 10614.998046875 23508 10619.923828125 23508 10626.0009765625 Z" stroke="none" fill="#1a1311"/>
      </g>
    </g>
  </g>
</svg>
