<?xml version="1.0" encoding="UTF-8"?><svg id="_レイヤー_2" xmlns="http://www.w3.org/2000/svg" viewBox="0 0 306.14 73.84"><defs><style>.cls-1{fill:#fff;stroke-width:0px;}</style></defs><g id="logo"><path class="cls-1" d="m26.4,32.11c1.8-.07,5.38.93,8.16-.4,3.39-1.62,4.2-3.88,5.14-5.63.21-.39-.31-.68-.51-.38-1.3,1.95-4.14,4.94-10.55,3.03-5.8-1.73-8.47,2.64-8.87,3.49,0,0,0-1.76,0-1.84,0-.08-.05-.13-.12-.14-.07,0-.14.12-.14.12-.61,2.73-1.53,4.45-2.53,5.29v.66c-.73.68-2.15,1.33-3.64,1.56-1.54.23-.22,2.5-.22,2.5.18-.33.48-.58.84-.75l.76,1.25.09-1.54c.19-.04.38-.07.57-.09l.44,1.09.3-1.15c.41-.01.8,0,1.13.03.49.03.75.59.48.99-.36.53-.77,1.12-.82,1.17,0,0-.6-.68-.6-.68l.19,1.23s0,0,0,0c-.25.4-.36.83-.12,1.2l1.03-.38s-.14-.09-.12-.26c0-.32.43-.69,1.09-1.23,2.5-2.04,5.01,1.18,1.96,3.96-2.28,2.09-2.89,3.62-2.89,4.24h0c-.18.1-.31.28-.31.5h0c0,.3.23.53.53.55.37.48.59,1.08.59,1.73,0,.72-.27,1.37-.71,1.87-.37.02-.72.19-.96.48l-.04.05c-.44.52-.42,1.29.05,1.79.01.01.03.03.04.04h-.41l-1.22,2.36,1.22,2.36h16.43l1.22-2.36-1.22-2.36h-.45s.07-.06.09-.09l.04-.05c.44-.52.42-1.29-.05-1.79-.25-.27-.59-.42-.95-.43-.44-.5-.71-1.15-.71-1.87,0-.65.22-1.25.59-1.73.29-.02.52-.26.52-.55h0c0-.21-.12-.39-.3-.49h0c.15-.46.63-1.8.05-3.35-.24-.65.29-.82.78-.7.55.15,1.35.41,2.76,1.52,1.9,1.5,1.7,2.16,2.11,1.98s.1-1.46-1.4-3.36c-1.73-2.19-3.72-3.13-4.73-3.66-.76-.46-.65-.9-.1-.98.73-.09,2.03-.02,3.77.96.41.23.85.62,1.01.39.13-.19,0-.57-.69-1.11-2.9-2.38-6.11-2.65-6.55-3.38-.22-.49-.1-.96,1.38-1.36,1.24-.29,2.29-.13,2.62-.06s.39-.34-.15-.59c-3.27-1.42-5.31-.28-6.6-1.06-1.16-.7-.86-2.53.69-2.59Z"/><path class="cls-1" d="m57.64,12.51h-1.43v-5.04c0-4.12-3.38-7.47-7.52-7.47h-4.2c-1.36,0-2.46,1.1-2.46,2.46s1.1,2.46,2.46,2.46h4.2c1.43,0,2.6,1.14,2.6,2.55v7.5c0,1.36,1.1,2.46,2.46,2.46h3.89c1.97,0,3.58,1.58,3.58,3.52v44.44c0,1.94-1.58,3.52-3.52,3.52h-6.71l-.03-47.96c0-4.66-3.79-8.45-8.45-8.45h-3.68v-5.04c0-4.12-3.38-7.47-7.52-7.47h-11.65c-4.15,0-7.52,3.35-7.52,7.47v5.04h-3.68C3.79,12.51,0,16.3,0,20.96v44.44c0,4.66,3.79,8.45,8.45,8.45h49.25c4.66,0,8.45-3.79,8.45-8.45V20.96c0-4.66-3.82-8.45-8.51-8.45ZM17.05,7.47c0-1.4,1.16-2.55,2.6-2.55h11.65c1.43,0,2.6,1.14,2.6,2.55v5.04h-16.85v-5.04Zm-8.61,61.44c-1.94,0-3.52-1.58-3.52-3.52V20.96c0-1.94,1.58-3.52,3.52-3.52h3.68v2.99c0,1.36,1.1,2.46,2.46,2.46s2.46-1.1,2.46-2.46v-2.99h16.85v2.99c0,1.36,1.1,2.46,2.46,2.46s2.46-1.1,2.46-2.46v-2.99h3.68c1.94,0,3.52,1.58,3.52,3.52v44.44c0,1.94-1.58,3.52-3.52,3.52H8.45Z"/><path class="cls-1" d="m102.84,61.18c-12.03,0-21.89-9.78-21.89-21.82s9.85-21.82,21.89-21.82c8.45,0,16.47,5,20.06,13.16h-9.92c-2.25-3.1-5.77-4.79-9.57-4.79-7.46,0-13.44,6.05-13.44,13.44s5.98,13.37,13.44,13.37c4.36,0,8.3-2.18,10.49-6.12h9.5c-3.24,9.01-11.61,14.57-20.55,14.57Z"/><polygon class="cls-1" points="140.43 73.84 163.3 28.31 154.29 28.31 144.65 47.38 135.08 28.31 125.37 28.31 139.86 56.95 131.35 73.84 140.43 73.84"/><path class="cls-1" d="m166.61,51.86c0,1.4.56,2.52,1.33,3.58.91,1.19,2.1,2.24,3.72,3.3,2.59,1.68,6.24,2.38,9.39,2.38,3.86,0,7.01-1.05,9.89-3.44,2.52-2.17,3.58-4.91,3.72-8.2.07-3.23-1.12-5.68-3.08-7.78-1.96-2.1-3.93-3.44-6.24-4.84-2.03-1.26-3.86-2.24-5.89-3.58-1.82-1.19-3.58-2.24-3.58-4.84,0-2.17,1.82-3.65,4.21-3.65,1.89,0,2.8.56,4,1.26s2.24,1.19,3.58,1.19c2.1,0,3.58-1.33,3.58-3.44,0-2.31-1.75-3.65-3.44-4.63-2.03-1.19-4.35-1.68-7.5-1.68-3.58,0-6.73,1.19-9.25,3.44-2.1,2.03-3.3,4.7-3.3,7.57,0,3.93,1.75,6.24,3.86,8.34,1.68,1.68,3.72,2.94,5.54,4.07,2.31,1.4,3.86,2.38,5.75,3.72,1.82,1.33,3.51,2.31,3.51,4.7,0,2.66-2.45,4.07-5.05,4.14-2.1.14-4-.56-5.54-1.82-.77-.63-1.19-1.05-1.75-1.61-.98-1.05-1.89-1.96-3.65-1.96-1.26,0-2.24.49-2.87,1.19s-.91,1.54-.91,2.59Z"/><path class="cls-1" d="m208.9,51.46l-.07-16.26h3.87c2.11,0,3.66-1.48,3.66-3.45s-1.55-3.45-3.66-3.45h-3.87v-4.01c0-2.11-1.55-3.87-3.8-3.87s-3.94,1.76-3.94,3.87v4.01h-2.53c-2.04,0-3.66,1.48-3.66,3.45s1.62,3.45,3.66,3.45h2.53l.07,18.79c0,4.46,3.3,7.18,7.71,7.18,1.87,0,2.95-.18,4.35-.53,1.75-.44,3.07-1.47,3.07-3.76s-1.76-3.31-3.17-3.45c-.7-.07-1.19-.05-1.97,0-1.48.09-2.25-.42-2.25-1.97Z"/><path class="cls-1" d="m235.43,28.03c-9.22,0-16.61,6.62-16.61,16.54s7.39,16.61,16.61,16.61,16.61-6.55,16.61-16.61-7.6-16.54-16.61-16.54Zm0,25.62c-4.47,0-8.74-2.86-8.74-9.08s4.51-9.01,8.74-9.01,8.74,2.79,8.74,9.01-4.27,9.08-8.74,9.08Z"/><path class="cls-1" d="m271.02,28.31c-3.52,0-5.49.49-6.76,2.11-.21-1.62-1.9-2.82-3.87-2.82-2.39,0-3.59,1.69-3.59,3.66v26.18c0,2.04,1.69,3.8,3.87,3.8s3.87-1.76,3.87-3.8l-.07-14.22c0-3.24.35-4.93,1.48-6.26,1.2-1.41,2.96-1.76,4.72-1.76h.99c2.3,0,3.52-1.62,3.52-3.45s-1.62-3.45-4.15-3.45Z"/><path class="cls-1" d="m306.14,43.3c0-8.52-6.55-15.2-15.2-15.2s-15.98,6.76-15.98,16.75,7.11,16.33,16.26,16.33c4.43,0,8.45-1.5,10.94-3.72,1.6-1.43,2.33-2.45,2.33-4.26s-1.56-3.28-3.46-3.28c-1.54,0-2.22.48-3.56,1.61-1.24,1.05-2.74,1.98-5.98,1.98-4.22,0-8-2.13-8.3-6.55h19.85c2.11,0,3.1-1.2,3.1-3.66Zm-22.72-2.14c.37-3.23,3.83-5.79,7.52-5.79,4.02,0,7.34,2.41,7.52,5.79h-15.04Z"/></g></svg>