<svg id="data" xmlns="http://www.w3.org/2000/svg" width="152.264" height="34.675" viewBox="0 0 152.264 34.675">
  <path id="パス_50385" data-name="パス 50385" d="M137.043,54.932,141,47.091l-6.709-13.3h4.488l4.456,8.859,4.47-8.859h4.238L141.273,54.932Z" transform="translate(-86.185 -21.684)" fill="#fff"/>
  <path id="パス_50386" data-name="パス 50386" d="M296.466,47.39V37.618a1.766,1.766,0,1,0-3.532,0V47.39h-3.919V37.618a1.762,1.762,0,0,0-3.525,0V47.39h-3.922V32.7l2.128.756a5.612,5.612,0,0,1,3.561-1.282,5.839,5.839,0,0,1,3.733,1.322,5.826,5.826,0,0,1,3.725-1.307,5.688,5.688,0,0,1,5.685,5.678V47.39Z" transform="translate(-180.707 -20.651)" fill="#fff"/>
  <path id="パス_50387" data-name="パス 50387" d="M238.444,48.026a7.909,7.909,0,1,1,4.682-14.275l3.224-1V47.409h-3.5v-.749a7.881,7.881,0,0,1-4.41,1.365Zm.244-12.179a4.3,4.3,0,0,0-4.17,4.3,4.17,4.17,0,1,0,8.339,0A4.3,4.3,0,0,0,238.687,35.846Z" transform="translate(-147.946 -20.67)" fill="#fff"/>
  <path id="パス_50388" data-name="パス 50388" d="M346.961,48.026a7.909,7.909,0,1,1,7.927-7.909,9.92,9.92,0,0,1-.1,1.257H343.157a4.163,4.163,0,0,0,3.99,3.005,4.227,4.227,0,0,0,3.224-1.569h4.03A7.916,7.916,0,0,1,346.961,48.026Zm4.044-9.518a4.137,4.137,0,0,0-7.716,0Z" transform="translate(-217.612 -20.67)" fill="#fff"/>
  <path id="パス_50389" data-name="パス 50389" d="M86.873,40.046a10.141,10.141,0,1,1,9.313-14.16h-4.6a5.413,5.413,0,0,0-4.46-2.21,6.226,6.226,0,0,0-.378,12.446l.1,0h.3a5.5,5.5,0,0,0,4.882-2.83h4.431A10.223,10.223,0,0,1,86.873,40.046Z" transform="translate(-49.247 -12.684)" fill="#fff"/>
  <path id="パス_50390" data-name="パス 50390" d="M392.817,47.968c-4.137,0-7-1.92-7.229-5.269h4.041c.1,1.325,1.433,2.01,3.328,2.01,1.77,0,2.866-.688,2.866-1.322,0-.767-1.153-1.35-3.167-1.6-4.3-.541-6.484-2.149-6.484-4.839a4.22,4.22,0,0,1,2.371-3.887,9.08,9.08,0,0,1,4.123-.953c3.851,0,6.161,1.587,6.831,4.793H395.36c-.236-.849-1.214-1.533-2.833-1.533-1.791,0-2.443.716-2.443,1.329,0,.817.982,1.354,2.919,1.6,4.463.577,6.727,2.207,6.727,4.839a4.219,4.219,0,0,1-2.59,3.89A10.372,10.372,0,0,1,392.817,47.968Z" transform="translate(-247.466 -20.606)" fill="#fff"/>
  <path id="パス_50391" data-name="パス 50391" d="M189.625,54.1a7.956,7.956,0,0,1-7.565-5.563H186.4a4.023,4.023,0,0,0,3.224,1.655,3.94,3.94,0,0,0,3.89-3.2,7.916,7.916,0,1,1,.767-13.254l3.224-1V46.2a7.92,7.92,0,0,1-7.881,7.9Zm.072-18.161a4.223,4.223,0,0,0-4.173,4.17,4.173,4.173,0,0,0,8.343,0,4.3,4.3,0,0,0-4.177-4.17Z" transform="translate(-116.598 -20.667)" fill="#fff"/>
  <path id="パス_50392" data-name="パス 50392" d="M13.407,6.361c1.752-.064,5.244.906,7.952-.394,3.3-1.58,4.091-3.783,5.015-5.481.2-.383-.308-.659-.5-.358C24.6,2.012,21.832,4.935,15.592,3.069a7,7,0,0,0-8.64,3.4V4.681a.133.133,0,0,0-.115-.133c-.072,0-.14.118-.14.118C6.107,7.325,5.211,9,4.233,9.821v.641A7.166,7.166,0,0,1,.7,11.978c-1.433.215-.215,2.436-.215,2.436A1.753,1.753,0,0,1,1.3,13.7l.741,1.221L2.113,13.4a4.693,4.693,0,0,1,.555-.09l.43,1.075.29-1.131c.394,0,.777,0,1.1.025a.616.616,0,0,1,.587.641.64.64,0,0,1-.111.33c-.358.519-.752,1.075-.8,1.139l-.609-.67.186,1.2h0a1.036,1.036,0,0,0-.115,1.164l1.007-.358a.254.254,0,0,1-.118-.251c0-.308.423-.673,1.075-1.2,2.436-1.984,4.879,1.146,1.916,3.858C5.3,21.17,4.7,22.661,4.7,23.284h0a.533.533,0,0,0-.3.48h0a.544.544,0,0,0,.512.537A2.751,2.751,0,0,1,4.8,27.808a1.29,1.29,0,0,0-.935.462l-.039.047a1.318,1.318,0,0,0,.043,1.748l.021.036H3.511L2.325,32.393l1.186,2.282h16l1.186-2.3L19.511,30.09h-.441a1.157,1.157,0,0,0,.093-.09l.039-.047A1.318,1.318,0,0,0,19.02,28.1a1.3,1.3,0,0,0-.788-.3,2.75,2.75,0,0,1-.7-1.823,2.711,2.711,0,0,1,.577-1.687.541.541,0,0,0,.505-.534h0a.537.537,0,0,0-.279-.476h0a4.7,4.7,0,0,0,.05-3.245c-.236-.63.283-.8.763-.688a7.023,7.023,0,0,1,2.69,1.483c1.848,1.458,1.651,2.1,2.053,1.931s.1-1.433-1.365-3.274a12.892,12.892,0,0,0-4.614-3.582c-.738-.451-.63-.863-.093-.96a5.96,5.96,0,0,1,3.668.935c.4.229.827.6.985.38s0-.559-.677-1.075c-2.83-2.318-5.95-2.583-6.383-3.292-.215-.473-.1-.931,1.347-1.325a6.214,6.214,0,0,1,2.565-.057c.33.064.38-.33-.15-.58C15.99,8.558,14,9.658,12.727,8.9a1.347,1.347,0,0,1,.688-2.536Z" transform="translate(0 0)" fill="#fff"/>
</svg>
